<mxfile host="app.diagrams.net" modified="2023-11-21T08:03:14.890Z" agent="Mozilla/5.0 (Windows NT 10.0; Win64; x64) AppleWebKit/537.36 (KHTML, like Gecko) Chrome/119.0.0.0 Safari/537.36 Edg/119.0.0.0" etag="L5kc4w6oeZBTpJI2kzNP" version="22.1.3" type="device">
  <diagram name="Page-1" id="Wli4VPFNiPU2SU2I3E8u">
    <mxGraphModel dx="996" dy="3841" grid="1" gridSize="10" guides="1" tooltips="1" connect="1" arrows="1" fold="1" page="1" pageScale="1" pageWidth="2339" pageHeight="3300" math="0" shadow="0">
      <root>
        <mxCell id="0" />
        <mxCell id="1" parent="0" />
        <mxCell id="vDlcmsHh33bK4QmpVzsn-111" value="" style="rounded=0;whiteSpace=wrap;html=1;" vertex="1" parent="1">
          <mxGeometry x="605" y="-2260" width="205" height="40" as="geometry" />
        </mxCell>
        <mxCell id="vDlcmsHh33bK4QmpVzsn-121" value="&lt;b&gt;Musican_ID&lt;/b&gt;" style="text;html=1;align=center;verticalAlign=middle;resizable=0;points=[];autosize=1;strokeColor=none;fillColor=none;" vertex="1" parent="1">
          <mxGeometry x="730" y="-2255" width="90" height="30" as="geometry" />
        </mxCell>
        <mxCell id="vDlcmsHh33bK4QmpVzsn-1" value="" style="rounded=0;whiteSpace=wrap;html=1;" vertex="1" parent="1">
          <mxGeometry x="120" y="-2380" width="260" height="40" as="geometry" />
        </mxCell>
        <mxCell id="vDlcmsHh33bK4QmpVzsn-2" value="&lt;b style=&quot;&quot;&gt;&lt;u&gt;ID&lt;/u&gt;&lt;/b&gt;" style="text;html=1;align=center;verticalAlign=middle;resizable=0;points=[];autosize=1;strokeColor=none;fillColor=none;" vertex="1" parent="1">
          <mxGeometry x="120" y="-2375" width="40" height="30" as="geometry" />
        </mxCell>
        <mxCell id="vDlcmsHh33bK4QmpVzsn-3" value="&lt;b&gt;Musican&lt;/b&gt;" style="text;html=1;align=center;verticalAlign=middle;resizable=0;points=[];autosize=1;strokeColor=none;fillColor=none;" vertex="1" parent="1">
          <mxGeometry x="115" y="-2410" width="70" height="30" as="geometry" />
        </mxCell>
        <mxCell id="vDlcmsHh33bK4QmpVzsn-4" value="" style="endArrow=none;html=1;rounded=0;" edge="1" parent="1">
          <mxGeometry width="50" height="50" relative="1" as="geometry">
            <mxPoint x="160" y="-2380" as="sourcePoint" />
            <mxPoint x="160" y="-2340" as="targetPoint" />
          </mxGeometry>
        </mxCell>
        <mxCell id="vDlcmsHh33bK4QmpVzsn-7" value="" style="endArrow=none;html=1;rounded=0;" edge="1" parent="1">
          <mxGeometry width="50" height="50" relative="1" as="geometry">
            <mxPoint x="220" y="-2380" as="sourcePoint" />
            <mxPoint x="220" y="-2340" as="targetPoint" />
          </mxGeometry>
        </mxCell>
        <mxCell id="vDlcmsHh33bK4QmpVzsn-8" value="" style="endArrow=none;html=1;rounded=0;" edge="1" parent="1">
          <mxGeometry width="50" height="50" relative="1" as="geometry">
            <mxPoint x="290" y="-2380" as="sourcePoint" />
            <mxPoint x="290" y="-2340" as="targetPoint" />
          </mxGeometry>
        </mxCell>
        <mxCell id="vDlcmsHh33bK4QmpVzsn-9" value="" style="endArrow=none;html=1;rounded=0;" edge="1" parent="1">
          <mxGeometry width="50" height="50" relative="1" as="geometry">
            <mxPoint x="339.13" y="-2380" as="sourcePoint" />
            <mxPoint x="339.13" y="-2340" as="targetPoint" />
          </mxGeometry>
        </mxCell>
        <mxCell id="vDlcmsHh33bK4QmpVzsn-11" value="&lt;b&gt;City&lt;/b&gt;" style="text;html=1;align=center;verticalAlign=middle;resizable=0;points=[];autosize=1;strokeColor=none;fillColor=none;" vertex="1" parent="1">
          <mxGeometry x="290" y="-2375" width="50" height="30" as="geometry" />
        </mxCell>
        <mxCell id="vDlcmsHh33bK4QmpVzsn-14" value="&lt;b&gt;Ph_number&lt;/b&gt;" style="text;html=1;align=center;verticalAlign=middle;resizable=0;points=[];autosize=1;strokeColor=none;fillColor=none;" vertex="1" parent="1">
          <mxGeometry x="210" y="-2375" width="90" height="30" as="geometry" />
        </mxCell>
        <mxCell id="vDlcmsHh33bK4QmpVzsn-15" value="" style="endArrow=none;dashed=1;html=1;rounded=0;entryX=0.829;entryY=1.032;entryDx=0;entryDy=0;entryPerimeter=0;" edge="1" parent="1" target="vDlcmsHh33bK4QmpVzsn-121">
          <mxGeometry width="50" height="50" relative="1" as="geometry">
            <mxPoint x="745" y="-2225.69" as="sourcePoint" />
            <mxPoint x="790" y="-2225.69" as="targetPoint" />
          </mxGeometry>
        </mxCell>
        <mxCell id="vDlcmsHh33bK4QmpVzsn-16" value="&lt;b&gt;name&lt;/b&gt;" style="text;html=1;align=center;verticalAlign=middle;resizable=0;points=[];autosize=1;strokeColor=none;fillColor=none;" vertex="1" parent="1">
          <mxGeometry x="160" y="-2375" width="50" height="30" as="geometry" />
        </mxCell>
        <mxCell id="vDlcmsHh33bK4QmpVzsn-17" value="&lt;b&gt;Street&lt;/b&gt;" style="text;html=1;align=center;verticalAlign=middle;resizable=0;points=[];autosize=1;strokeColor=none;fillColor=none;" vertex="1" parent="1">
          <mxGeometry x="330" y="-2375" width="60" height="30" as="geometry" />
        </mxCell>
        <mxCell id="vDlcmsHh33bK4QmpVzsn-112" value="&lt;b style=&quot;&quot;&gt;&lt;u&gt;ID&lt;/u&gt;&lt;/b&gt;" style="text;html=1;align=center;verticalAlign=middle;resizable=0;points=[];autosize=1;strokeColor=none;fillColor=none;" vertex="1" parent="1">
          <mxGeometry x="605" y="-2255" width="40" height="30" as="geometry" />
        </mxCell>
        <mxCell id="vDlcmsHh33bK4QmpVzsn-113" value="&lt;b&gt;Album&lt;/b&gt;" style="text;html=1;align=center;verticalAlign=middle;resizable=0;points=[];autosize=1;strokeColor=none;fillColor=none;" vertex="1" parent="1">
          <mxGeometry x="605" y="-2290" width="60" height="30" as="geometry" />
        </mxCell>
        <mxCell id="vDlcmsHh33bK4QmpVzsn-114" value="" style="endArrow=none;html=1;rounded=0;" edge="1" parent="1">
          <mxGeometry width="50" height="50" relative="1" as="geometry">
            <mxPoint x="645" y="-2260" as="sourcePoint" />
            <mxPoint x="645" y="-2220" as="targetPoint" />
          </mxGeometry>
        </mxCell>
        <mxCell id="vDlcmsHh33bK4QmpVzsn-115" value="" style="endArrow=none;html=1;rounded=0;" edge="1" parent="1">
          <mxGeometry width="50" height="50" relative="1" as="geometry">
            <mxPoint x="705" y="-2260" as="sourcePoint" />
            <mxPoint x="705" y="-2220" as="targetPoint" />
          </mxGeometry>
        </mxCell>
        <mxCell id="vDlcmsHh33bK4QmpVzsn-117" value="" style="endArrow=none;html=1;rounded=0;" edge="1" parent="1">
          <mxGeometry width="50" height="50" relative="1" as="geometry">
            <mxPoint x="734.79" y="-2260" as="sourcePoint" />
            <mxPoint x="734.66" y="-2220" as="targetPoint" />
          </mxGeometry>
        </mxCell>
        <mxCell id="vDlcmsHh33bK4QmpVzsn-119" value="&lt;b&gt;Date&lt;/b&gt;" style="text;html=1;align=center;verticalAlign=middle;resizable=0;points=[];autosize=1;strokeColor=none;fillColor=none;" vertex="1" parent="1">
          <mxGeometry x="695" y="-2255" width="50" height="30" as="geometry" />
        </mxCell>
        <mxCell id="vDlcmsHh33bK4QmpVzsn-120" value="&lt;b&gt;Tittle&lt;/b&gt;" style="text;html=1;align=center;verticalAlign=middle;resizable=0;points=[];autosize=1;strokeColor=none;fillColor=none;" vertex="1" parent="1">
          <mxGeometry x="645" y="-2255" width="50" height="30" as="geometry" />
        </mxCell>
        <mxCell id="vDlcmsHh33bK4QmpVzsn-122" value="" style="endArrow=classic;html=1;rounded=0;exitX=0.805;exitY=1;exitDx=0;exitDy=0;exitPerimeter=0;entryX=0.123;entryY=1.026;entryDx=0;entryDy=0;entryPerimeter=0;" edge="1" parent="1" source="vDlcmsHh33bK4QmpVzsn-111" target="vDlcmsHh33bK4QmpVzsn-1">
          <mxGeometry width="50" height="50" relative="1" as="geometry">
            <mxPoint x="690" y="-2160" as="sourcePoint" />
            <mxPoint x="150" y="-2320" as="targetPoint" />
            <Array as="points">
              <mxPoint x="770" y="-2190" />
              <mxPoint x="840" y="-2190" />
              <mxPoint x="840" y="-2320" />
              <mxPoint x="152" y="-2320" />
            </Array>
          </mxGeometry>
        </mxCell>
        <mxCell id="vDlcmsHh33bK4QmpVzsn-123" value="" style="rounded=0;whiteSpace=wrap;html=1;" vertex="1" parent="1">
          <mxGeometry x="605" y="-2090" width="90" height="40" as="geometry" />
        </mxCell>
        <mxCell id="vDlcmsHh33bK4QmpVzsn-126" value="&lt;b style=&quot;&quot;&gt;&lt;u&gt;Tittle&lt;/u&gt;&lt;/b&gt;" style="text;html=1;align=center;verticalAlign=middle;resizable=0;points=[];autosize=1;strokeColor=none;fillColor=none;" vertex="1" parent="1">
          <mxGeometry x="600" y="-2085" width="50" height="30" as="geometry" />
        </mxCell>
        <mxCell id="vDlcmsHh33bK4QmpVzsn-127" value="" style="endArrow=none;html=1;rounded=0;" edge="1" parent="1">
          <mxGeometry width="50" height="50" relative="1" as="geometry">
            <mxPoint x="645" y="-2090" as="sourcePoint" />
            <mxPoint x="645" y="-2050" as="targetPoint" />
          </mxGeometry>
        </mxCell>
        <mxCell id="vDlcmsHh33bK4QmpVzsn-131" value="&lt;b&gt;Author&lt;/b&gt;" style="text;html=1;align=center;verticalAlign=middle;resizable=0;points=[];autosize=1;strokeColor=none;fillColor=none;" vertex="1" parent="1">
          <mxGeometry x="640" y="-2085" width="60" height="30" as="geometry" />
        </mxCell>
        <mxCell id="vDlcmsHh33bK4QmpVzsn-132" value="&lt;b&gt;Song&lt;/b&gt;" style="text;html=1;align=center;verticalAlign=middle;resizable=0;points=[];autosize=1;strokeColor=none;fillColor=none;" vertex="1" parent="1">
          <mxGeometry x="615" y="-2120" width="50" height="30" as="geometry" />
        </mxCell>
        <mxCell id="vDlcmsHh33bK4QmpVzsn-133" value="" style="rounded=0;whiteSpace=wrap;html=1;" vertex="1" parent="1">
          <mxGeometry x="610" y="-1960" width="90" height="40" as="geometry" />
        </mxCell>
        <mxCell id="vDlcmsHh33bK4QmpVzsn-135" value="" style="endArrow=none;dashed=1;html=1;rounded=0;" edge="1" parent="1">
          <mxGeometry width="50" height="50" relative="1" as="geometry">
            <mxPoint x="615" y="-1926" as="sourcePoint" />
            <mxPoint x="690" y="-1926" as="targetPoint" />
          </mxGeometry>
        </mxCell>
        <mxCell id="vDlcmsHh33bK4QmpVzsn-136" value="&lt;b style=&quot;&quot;&gt;&lt;u&gt;A_ID&lt;/u&gt;&lt;/b&gt;" style="text;html=1;align=center;verticalAlign=middle;resizable=0;points=[];autosize=1;strokeColor=none;fillColor=none;" vertex="1" parent="1">
          <mxGeometry x="605" y="-1955" width="50" height="30" as="geometry" />
        </mxCell>
        <mxCell id="vDlcmsHh33bK4QmpVzsn-137" value="&lt;b&gt;Album_Song&lt;/b&gt;" style="text;html=1;align=center;verticalAlign=middle;resizable=0;points=[];autosize=1;strokeColor=none;fillColor=none;" vertex="1" parent="1">
          <mxGeometry x="605" y="-1990" width="100" height="30" as="geometry" />
        </mxCell>
        <mxCell id="vDlcmsHh33bK4QmpVzsn-138" value="" style="endArrow=none;html=1;rounded=0;" edge="1" parent="1">
          <mxGeometry width="50" height="50" relative="1" as="geometry">
            <mxPoint x="650" y="-1960" as="sourcePoint" />
            <mxPoint x="650" y="-1920" as="targetPoint" />
          </mxGeometry>
        </mxCell>
        <mxCell id="vDlcmsHh33bK4QmpVzsn-142" value="&lt;b&gt;&lt;u&gt;S_Tittle&lt;/u&gt;&lt;/b&gt;" style="text;html=1;align=center;verticalAlign=middle;resizable=0;points=[];autosize=1;strokeColor=none;fillColor=none;" vertex="1" parent="1">
          <mxGeometry x="640" y="-1955" width="70" height="30" as="geometry" />
        </mxCell>
        <mxCell id="vDlcmsHh33bK4QmpVzsn-143" value="" style="endArrow=classic;html=1;rounded=0;exitX=0.75;exitY=1;exitDx=0;exitDy=0;entryX=0.25;entryY=1;entryDx=0;entryDy=0;" edge="1" parent="1" source="vDlcmsHh33bK4QmpVzsn-133" target="vDlcmsHh33bK4QmpVzsn-123">
          <mxGeometry width="50" height="50" relative="1" as="geometry">
            <mxPoint x="550" y="-2040" as="sourcePoint" />
            <mxPoint x="870" y="-1880" as="targetPoint" />
            <Array as="points">
              <mxPoint x="678" y="-1880" />
              <mxPoint x="740" y="-1880" />
              <mxPoint x="740" y="-2020" />
              <mxPoint x="628" y="-2020" />
            </Array>
          </mxGeometry>
        </mxCell>
        <mxCell id="vDlcmsHh33bK4QmpVzsn-144" value="" style="endArrow=classic;html=1;rounded=0;exitX=0.476;exitY=1.2;exitDx=0;exitDy=0;exitPerimeter=0;entryX=0.108;entryY=1.027;entryDx=0;entryDy=0;entryPerimeter=0;" edge="1" parent="1" source="vDlcmsHh33bK4QmpVzsn-136" target="vDlcmsHh33bK4QmpVzsn-111">
          <mxGeometry width="50" height="50" relative="1" as="geometry">
            <mxPoint x="550" y="-2040" as="sourcePoint" />
            <mxPoint x="840" y="-2160" as="targetPoint" />
            <Array as="points">
              <mxPoint x="629" y="-1840" />
              <mxPoint x="840" y="-1840" />
              <mxPoint x="840" y="-2160" />
              <mxPoint x="627" y="-2160" />
            </Array>
          </mxGeometry>
        </mxCell>
        <mxCell id="vDlcmsHh33bK4QmpVzsn-145" value="" style="rounded=0;whiteSpace=wrap;html=1;" vertex="1" parent="1">
          <mxGeometry x="305" y="-2265" width="90" height="40" as="geometry" />
        </mxCell>
        <mxCell id="vDlcmsHh33bK4QmpVzsn-146" value="" style="endArrow=none;dashed=1;html=1;rounded=0;" edge="1" parent="1">
          <mxGeometry width="50" height="50" relative="1" as="geometry">
            <mxPoint x="310" y="-2231" as="sourcePoint" />
            <mxPoint x="385" y="-2231" as="targetPoint" />
          </mxGeometry>
        </mxCell>
        <mxCell id="vDlcmsHh33bK4QmpVzsn-147" value="&lt;b style=&quot;&quot;&gt;&lt;u&gt;M_ID&lt;/u&gt;&lt;/b&gt;" style="text;html=1;align=center;verticalAlign=middle;resizable=0;points=[];autosize=1;strokeColor=none;fillColor=none;" vertex="1" parent="1">
          <mxGeometry x="300" y="-2260" width="50" height="30" as="geometry" />
        </mxCell>
        <mxCell id="vDlcmsHh33bK4QmpVzsn-148" value="&lt;b&gt;Musican_Song&lt;/b&gt;" style="text;html=1;align=center;verticalAlign=middle;resizable=0;points=[];autosize=1;strokeColor=none;fillColor=none;" vertex="1" parent="1">
          <mxGeometry x="295" y="-2295" width="110" height="30" as="geometry" />
        </mxCell>
        <mxCell id="vDlcmsHh33bK4QmpVzsn-149" value="" style="endArrow=none;html=1;rounded=0;" edge="1" parent="1">
          <mxGeometry width="50" height="50" relative="1" as="geometry">
            <mxPoint x="345" y="-2265" as="sourcePoint" />
            <mxPoint x="345" y="-2225" as="targetPoint" />
          </mxGeometry>
        </mxCell>
        <mxCell id="vDlcmsHh33bK4QmpVzsn-150" value="&lt;b&gt;&lt;u&gt;S_ID&lt;/u&gt;&lt;/b&gt;" style="text;html=1;align=center;verticalAlign=middle;resizable=0;points=[];autosize=1;strokeColor=none;fillColor=none;" vertex="1" parent="1">
          <mxGeometry x="345" y="-2260" width="50" height="30" as="geometry" />
        </mxCell>
        <mxCell id="vDlcmsHh33bK4QmpVzsn-151" value="" style="endArrow=classic;html=1;rounded=0;exitX=0.75;exitY=1;exitDx=0;exitDy=0;entryX=-0.016;entryY=0.467;entryDx=0;entryDy=0;entryPerimeter=0;" edge="1" parent="1" source="vDlcmsHh33bK4QmpVzsn-145" target="vDlcmsHh33bK4QmpVzsn-126">
          <mxGeometry width="50" height="50" relative="1" as="geometry">
            <mxPoint x="410" y="-2210" as="sourcePoint" />
            <mxPoint x="460" y="-2260" as="targetPoint" />
            <Array as="points">
              <mxPoint x="373" y="-2071" />
            </Array>
          </mxGeometry>
        </mxCell>
        <mxCell id="vDlcmsHh33bK4QmpVzsn-152" value="" style="endArrow=classic;html=1;rounded=0;entryX=0.049;entryY=1.103;entryDx=0;entryDy=0;entryPerimeter=0;" edge="1" parent="1" target="vDlcmsHh33bK4QmpVzsn-1">
          <mxGeometry width="50" height="50" relative="1" as="geometry">
            <mxPoint x="305" y="-2240.5" as="sourcePoint" />
            <mxPoint x="205" y="-2240.5" as="targetPoint" />
            <Array as="points">
              <mxPoint x="133" y="-2240" />
            </Array>
          </mxGeometry>
        </mxCell>
        <mxCell id="vDlcmsHh33bK4QmpVzsn-153" value="" style="rounded=0;whiteSpace=wrap;html=1;" vertex="1" parent="1">
          <mxGeometry x="140" y="-2140" width="90" height="40" as="geometry" />
        </mxCell>
        <mxCell id="vDlcmsHh33bK4QmpVzsn-154" value="&lt;b style=&quot;&quot;&gt;&lt;u&gt;Name&lt;/u&gt;&lt;/b&gt;" style="text;html=1;align=center;verticalAlign=middle;resizable=0;points=[];autosize=1;strokeColor=none;fillColor=none;" vertex="1" parent="1">
          <mxGeometry x="130" y="-2135" width="60" height="30" as="geometry" />
        </mxCell>
        <mxCell id="vDlcmsHh33bK4QmpVzsn-155" value="" style="endArrow=none;html=1;rounded=0;" edge="1" parent="1">
          <mxGeometry width="50" height="50" relative="1" as="geometry">
            <mxPoint x="180" y="-2140" as="sourcePoint" />
            <mxPoint x="180" y="-2100" as="targetPoint" />
          </mxGeometry>
        </mxCell>
        <mxCell id="vDlcmsHh33bK4QmpVzsn-156" value="&lt;b&gt;Key&lt;/b&gt;" style="text;html=1;align=center;verticalAlign=middle;resizable=0;points=[];autosize=1;strokeColor=none;fillColor=none;" vertex="1" parent="1">
          <mxGeometry x="180" y="-2135" width="50" height="30" as="geometry" />
        </mxCell>
        <mxCell id="vDlcmsHh33bK4QmpVzsn-157" value="&lt;b&gt;Instrument&lt;/b&gt;" style="text;html=1;align=center;verticalAlign=middle;resizable=0;points=[];autosize=1;strokeColor=none;fillColor=none;" vertex="1" parent="1">
          <mxGeometry x="130" y="-2170" width="90" height="30" as="geometry" />
        </mxCell>
        <mxCell id="vDlcmsHh33bK4QmpVzsn-158" value="" style="rounded=0;whiteSpace=wrap;html=1;" vertex="1" parent="1">
          <mxGeometry x="140" y="-1950" width="90" height="40" as="geometry" />
        </mxCell>
        <mxCell id="vDlcmsHh33bK4QmpVzsn-159" value="" style="endArrow=none;dashed=1;html=1;rounded=0;" edge="1" parent="1">
          <mxGeometry width="50" height="50" relative="1" as="geometry">
            <mxPoint x="145" y="-1916" as="sourcePoint" />
            <mxPoint x="220" y="-1916" as="targetPoint" />
          </mxGeometry>
        </mxCell>
        <mxCell id="vDlcmsHh33bK4QmpVzsn-160" value="&lt;b style=&quot;&quot;&gt;&lt;u&gt;M_ID&lt;/u&gt;&lt;/b&gt;" style="text;html=1;align=center;verticalAlign=middle;resizable=0;points=[];autosize=1;strokeColor=none;fillColor=none;" vertex="1" parent="1">
          <mxGeometry x="135" y="-1945" width="50" height="30" as="geometry" />
        </mxCell>
        <mxCell id="vDlcmsHh33bK4QmpVzsn-161" value="&lt;b&gt;Musican_Instrument&lt;/b&gt;" style="text;html=1;align=center;verticalAlign=middle;resizable=0;points=[];autosize=1;strokeColor=none;fillColor=none;" vertex="1" parent="1">
          <mxGeometry x="130" y="-1980" width="140" height="30" as="geometry" />
        </mxCell>
        <mxCell id="vDlcmsHh33bK4QmpVzsn-162" value="" style="endArrow=none;html=1;rounded=0;" edge="1" parent="1">
          <mxGeometry width="50" height="50" relative="1" as="geometry">
            <mxPoint x="180" y="-1950" as="sourcePoint" />
            <mxPoint x="180" y="-1910" as="targetPoint" />
          </mxGeometry>
        </mxCell>
        <mxCell id="vDlcmsHh33bK4QmpVzsn-163" value="&lt;b&gt;&lt;u&gt;I_name&lt;/u&gt;&lt;/b&gt;" style="text;html=1;align=center;verticalAlign=middle;resizable=0;points=[];autosize=1;strokeColor=none;fillColor=none;" vertex="1" parent="1">
          <mxGeometry x="175" y="-1945" width="60" height="30" as="geometry" />
        </mxCell>
        <mxCell id="vDlcmsHh33bK4QmpVzsn-164" value="" style="endArrow=classic;html=1;rounded=0;" edge="1" parent="1">
          <mxGeometry width="50" height="50" relative="1" as="geometry">
            <mxPoint x="140" y="-1930" as="sourcePoint" />
            <mxPoint x="120" y="-2360" as="targetPoint" />
            <Array as="points">
              <mxPoint x="80" y="-1930" />
              <mxPoint x="80" y="-2360" />
            </Array>
          </mxGeometry>
        </mxCell>
        <mxCell id="vDlcmsHh33bK4QmpVzsn-165" value="" style="endArrow=classic;html=1;rounded=0;exitX=1;exitY=0.5;exitDx=0;exitDy=0;exitPerimeter=0;entryX=0.25;entryY=1;entryDx=0;entryDy=0;" edge="1" parent="1" source="vDlcmsHh33bK4QmpVzsn-163" target="vDlcmsHh33bK4QmpVzsn-153">
          <mxGeometry width="50" height="50" relative="1" as="geometry">
            <mxPoint x="410" y="-1980" as="sourcePoint" />
            <mxPoint x="460" y="-2030" as="targetPoint" />
            <Array as="points">
              <mxPoint x="280" y="-1930" />
              <mxPoint x="280" y="-2000" />
              <mxPoint x="160" y="-2000" />
            </Array>
          </mxGeometry>
        </mxCell>
      </root>
    </mxGraphModel>
  </diagram>
</mxfile>
